<?xml version="1.0" encoding="utf-8"?>
<!-- Generator: Adobe Illustrator 21.0.0, SVG Export Plug-In . SVG Version: 6.00 Build 0)  -->
<svg version="1.1" id="Layer_1" xmlns="http://www.w3.org/2000/svg" xmlns:xlink="http://www.w3.org/1999/xlink" x="0px" y="0px"
	 viewBox="0 0 1366 768" style="enable-background:new 0 0 1366 768;" xml:space="preserve">
<style type="text/css">
	.st0{fill:#1F1A17;}
	.st1{fill:#DBB500;}
</style>
<g>
	<path class="st0" d="M374.8,439c-1.9-0.3-3.7-0.6-5.6-0.8c-0.6,0-1.1-0.2-1.7-0.1c-0.5-0.1-0.9-0.1-1.4-0.2c-0.3,0.1-0.6-0.1-1,0
		c-2.1-0.3-4.3-0.3-6.4-0.4c-3.4-0.1-6.8-0.1-10.1,0.1c-3.7,0.2-7.4,0.4-11.1,0.8c-2.7,0.3-5.4,0.6-8.1,0.9c-4.3,0.5-8.5,1.2-12.8,2
		c-3.4,0.6-6.7,1.2-10,1.9c-5.1,1-10.1,2.2-15.1,3.4c-5.4,1.3-10.7,2.7-16.1,4c-7.3,1.8-14.6,3.6-22.2,5c-5.3,1-10.6,1.8-16,2.6
		c-5.2,0.7-10.4,1.2-15.7,1.5c-3.5,0.2-7.1,0.2-10.7,0.1c-2.4-0.1-4.7-0.2-7.1-0.4c-0.3,0.1-0.6-0.1-1,0c-0.4,0-0.8-0.1-1.2-0.1
		c-0.4,0-0.8-0.1-1.2-0.1c-0.6-0.1-1.3-0.2-1.9-0.2c-0.8,0-1.6-0.3-2.4-0.3c-1.5-0.2-3-0.4-4.5-0.7c-0.7-0.2-1.4-0.2-2.1-0.4
		c-0.6-0.1-1.1-0.2-1.7-0.3c-0.4-0.2-0.8-0.1-1.2-0.3c-0.3-0.1-0.7-0.1-1-0.2c-0.3-0.2-0.7-0.1-1-0.2c-3.3-0.7-6.6-1.6-9.9-2.6
		c-3.5-1.1-6.9-2.3-10.3-3.6c-3.4-1.3-6.8-2.8-10.1-4.3c-2.9-1.4-5.7-2.9-8.4-4.4c-4.8-2.6-9.4-5.5-13.9-8.5c0-0.1,0.2-0.2,0.3-0.1
		c1,0.2,2,0.2,3,0.5c3.5,1.9,7.2,3.7,11,5.4c5.7,2.6,11.5,4.8,17.6,6.8c2.7,0.9,5.5,1.7,8.3,2.4c1.1,0.3,2.2,0.6,3.4,0.8
		c0.3,0.2,0.7,0.1,1,0.2c0.3,0.1,0.7,0.1,1,0.2c0.3,0.2,0.8,0.1,1.1,0.3c0.6,0.1,1.1,0.2,1.7,0.3c0.8,0.3,1.8,0.2,2.6,0.5
		c1.2,0.2,2.4,0.4,3.6,0.5c0.7,0,1.4,0.2,2.1,0.2c0.5,0.1,1,0.1,1.6,0.2c0.4,0,0.8,0.1,1.2,0.1c0.3,0,0.7,0.1,1,0.1
		c0.4-0.1,0.8,0.1,1.1,0.1c2.8,0.3,5.5,0.4,8.3,0.4c5.8,0.1,11.5-0.2,17.2-0.8c9.3-0.9,18.3-2.5,27.2-4.4c2.6-0.6,5.2-1.1,7.7-1.7
		c5.4-1.3,10.7-2.6,16-4c6.4-1.7,12.8-3.2,19.4-4.6c6.1-1.3,12.2-2.4,18.5-3.3c5.1-0.7,10.3-1.4,15.5-1.8c7.4-0.6,14.9-1,22.5-0.8
		c3,0.1,6,0.2,9,0.4c0.3-0.1,0.7,0.1,1,0c0.3,0,0.7,0.1,1,0.1c0.4-0.1,0.9,0.2,1.3,0.1c0.6,0.1,1.2,0.2,1.8,0.2
		c0.8,0,1.5,0.3,2.2,0.2c1,0.2,2.1,0.3,3.1,0.5c0.5,0.2,1.1,0.1,1.7,0.4c0.4,0.1,0.8,0.1,1.2,0.2c0.3,0.2,0.7,0.1,1,0.2
		c8.8,2.1,16.9,5.4,24.8,9c4.3,2,8.5,4.1,12.4,6.5c0.1,0.1,0.3,0.1,0.5,0.2c0,0.2-0.1,0.2-0.3,0.1c-1.2-0.2-2.3-0.3-3.5-0.6
		c-1.8-0.7-3.6-1.6-5.4-2.3c-2.7-1.1-5.4-2.1-8.1-3c-2.4-0.8-4.8-1.5-7.3-2.1c-0.5-0.1-1-0.4-1.6-0.4c-0.3-0.2-0.6-0.1-0.9-0.2
		c-0.3-0.1-0.6-0.1-0.8-0.2c-0.3-0.2-0.7-0.1-0.9-0.2c-0.5-0.1-0.9-0.2-1.4-0.2C375.9,439.1,375.3,439.2,374.8,439z"/>
</g>
<path d="M151,432.3l15.8-16l1.6-0.2c0.4-0.1,1.4,0,2.8,0.1c0.7,0.1,1.5,0.1,2.4,0.1c7.8,0,13.7-2.4,17.7-7.2s7.2-13.3,9.6-25.7
	l20.4-102.3c-14.8,0-26.8,4-35.9,11.9c-9.1,7.9-13.7,18.3-13.7,31.1v2.4l-20.9,10.1c3.7-42.6,34.4-63.9,92.1-63.9h31.2
	c24,0,41.3,4.5,52,13.4c10.6,8.9,16,23.6,16,43.8c0,32.8-11.3,58.5-34,77.1C285.3,425.7,254,435,214,435c-1.7,0-5-0.1-10-0.3
	L151,432.3z M189.9,418.7l19.2,3.2c10.4,1.8,21,2.7,31.8,2.7c14.8,0,26.3-2,34.6-6.1c8.3-4.1,15.9-11.5,23-22.3
	c12.4-19,18.6-40.1,18.6-63.3c0-35.8-19.8-53.7-59.3-53.7h-13.5L227.8,362c-2.9,15-7,26.4-12.2,34.1S201.9,411.3,189.9,418.7z"/>
<path class="st1" d="M334.8,418l0.4-18.9c0-37.4-3.5-63.4-10.5-78c-7.4-15.3-16.5-23-27.3-23c-9.7,0-18.3,6-25.8,18l-3.8-2
	c11.1-16.7,23.1-25,36.2-25c31.3,0,46.9,34.8,46.9,104.4l23.9-36.3c14.5-22,21.8-35.7,21.8-41.2c0-1.8-2.2-2.8-6.7-2.8h-6l0.9-4.4
	H417l-1,4.4h-6.2l-67.2,102.8L334.8,418z"/>
</svg>
